# xmcd
#
# Track frame offsets:
#	150
#	13890
#	27162
#	40937
#	55877
#	69460
#	84865
#	96982
#	108275
#	122865
#	134725
#	149270
#	162330
#	174125
#	185460
#	199417
#
# Disc length: 2807 seconds
#
# Revision: 1
# Processed by: cddbd v1.5.1PL0 Copyright (c) Steve Scherf et al.
# Submitted via: audiograbber 1.83.01
#
DISCID=e00af510
DTITLE=Mahalia Jackson - Portrait
DYEAR=1992
DGENRE=Gospel
TTITLE0=The Lord Prayer
TTITLE1=He's My Light
TTITLE2=Walkin' To Jerusalem
TTITLE3=Come To Jesus
TTITLE4=Even Me
TTITLE5=City Called Heaven
TTITLE6=Nobody Knows The Trouble I've Seen
TTITLE7=The Last Mile On The Way
TTITLE8=Hands Of God
TTITLE9=Get Away Jordan
TTITLE10=Go Tell It On The Moutain
TTITLE11=Shall I Meet You Over Yonder
TTITLE12=I Believe
TTITLE13=Beautiful Tomorrow
TTITLE14=Jesus Is With Me
TTITLE15=My Story
EXTD=
EXTT0=
EXTT1=
EXTT2=
EXTT3=
EXTT4=
EXTT5=
EXTT6=
EXTT7=
EXTT8=
EXTT9=
EXTT10=
EXTT11=
EXTT12=
EXTT13=
EXTT14=
EXTT15=
PLAYORDER=
